<svg width="30" height="40" viewBox="0 0 30 40" xmlns="http://www.w3.org/2000/svg"><title>placeholder-filled-point (1)</title><path d="M15.043 0C6.947 0 .36 6.587.36 14.683c0 2.112.433 4.128 1.284 5.994 3.672 8.033 10.71 16.514 12.78 18.922a.817.817 0 0 0 1.238 0c2.07-2.408 9.108-10.888 12.78-18.922a14.316 14.316 0 0 0 1.285-5.994C29.726 6.587 23.139 0 15.043 0zm0 22.31c-4.205 0-7.627-3.422-7.627-7.627 0-4.206 3.422-7.627 7.627-7.627s7.627 3.421 7.627 7.627c0 4.205-3.421 7.627-7.627 7.627z" fill="#00ADEE"/></svg>